<?xml version="1.0" encoding="utf-8"?>
<!-- Generator: Adobe Illustrator 25.2.2, SVG Export Plug-In . SVG Version: 6.00 Build 0)  -->
<svg version="1.1" id="Calque_1" xmlns="http://www.w3.org/2000/svg" xmlns:xlink="http://www.w3.org/1999/xlink" x="0px" y="0px"
	 viewBox="0 0 30 30" style="enable-background:new 0 0 30 30;" xml:space="preserve">
<path id="connexion" d="M16,24.3c1.1,0,7.8-0.6,7.7-2.5s-3.6-3.6-4.9-4.3s-1.7-1.5-1-2.3c0.7-0.8,2.4-3.1,2-5.6
	C19.5,7.6,17.7,6,15.5,6c-2,0-4.2,1.5-4.4,3.6c-0.1,1.7,0.3,3.3,1.2,4.7c0.6,0.8,2.2,1.8,0.8,2.6S8.5,19.4,8,20.1S6.8,22,7.7,22.8
	S16,24.3,16,24.3z"/>
</svg>
