<?xml version="1.0" encoding="utf-8"?>
<!-- Generator: Adobe Illustrator 25.2.2, SVG Export Plug-In . SVG Version: 6.00 Build 0)  -->
<svg version="1.1" id="Calque_1" xmlns="http://www.w3.org/2000/svg" xmlns:xlink="http://www.w3.org/1999/xlink" x="0px" y="0px"
	 viewBox="0 0 100 50" style="enable-background:new 0 0 100 50;" xml:space="preserve">
<style type="text/css">
	.st0{fill:#FFFFFF;}
	.st1{opacity:0.65;fill:#FFFFFF;enable-background:new    ;}
	.st2{fill:#F15A24;}
	.st3{enable-background:new    ;}
	.st4{fill:#FFFFFF;stroke:#FFFFFF;stroke-width:9.700000e-02;stroke-miterlimit:11.339;}
</style>
<g id="logoallysansfond_1_" transform="translate(0.013 1.562)">
	<path id="path118_1_" class="st0" d="M18,24.2c-0.2-2.2-0.7-3.3-1.3-4c-1-0.6-2.1-0.7-3.2-0.4c-0.9,0.2-5,1.6-4,1.5
		c0.9-0.1,2.6-0.2,2.5-0.2c0.3,1.1,0.9,2.1,1.5,2.9c0.9,0.8,2,1.2,3.2,1c0.4,0.9,1.1,2.3,0.6,3.3c-0.5,0.9-3.4,3.1-3.5,5
		c-0.1,1.9-0.1,4.1,1.9,5.8c-1.2-2.1-1.7-3.7-1.4-5c0.2-1.2,1.4-2.3,2.9-3.7c1.4-1.2,1.7-2.3,1.4-3.7C18.5,25.8,18.3,25,18,24.2z"/>
	<ellipse id="path122_1_" class="st1" cx="13.8" cy="20.8" rx="0.6" ry="0.6"/>
	<path id="path124_1_" class="st2" d="M14.5,23.6c-0.7-0.6-1.3-1.2-1.8-2c0.3,1,1,1.9,2,2.5c0.8,0.4,2.2,0.1,2.5,0.1
		C16.2,24.2,15.3,24,14.5,23.6L14.5,23.6z"/>
	<path id="path118-7_1_" class="st0" d="M29.7,24c0.2-2.2,0.7-3.3,1.3-4.1c1-0.6,2.1-0.7,3.2-0.4c0.8,0.2,4.9,1.6,4,1.5
		s-2.6-0.2-2.5-0.2c-0.3,1.1-0.8,2.1-1.5,3c-0.6,0.6-2,1.3-3.2,1c-0.4,0.9-1.1,2.4-0.6,3.3c0.5,1,3.3,3.1,3.4,5
		c0.1,1.9,0.1,4.2-1.8,5.9c1.2-2.1,1.6-3.8,1.4-5.1s-1.3-2.4-2.8-3.7c-1.4-1.3-1.7-2.3-1.4-3.8C29.3,25.6,29.5,24.8,29.7,24L29.7,24
		z"/>
	<ellipse id="path122-4_1_" class="st1" cx="33.9" cy="20.6" rx="0.7" ry="0.7"/>
	<path id="path124-9_1_" class="st2" d="M33.2,23.2c0.8-0.6,1.4-1.2,2-2c-0.4,1.1-1.1,2-2.1,2.5c-0.8,0.4-2.4,0.1-2.7,0.1
		C32.4,23.7,33.3,23.2,33.2,23.2z"/>
	<path id="path154_1_" class="st0" d="M23.7,34.4c1.8-0.2,3.9-1.6,4.6-0.6c0.6,1.1-1.1,2.2-1.8,2.9c-0.7,0.7-2,1.6-2.3,2.4
		c0.5,1,2.5,1,3.9,0.9c-2.2,0.4-3.1,0.4-4.3,0.1c-1.5,0.1-3,0.1-4.5-0.2c1.3,0.1,4.7-0.4,4.1-1c-1-1.1-2-2.1-3-3.1
		c-1.4-1.3-1.6-2.9,0.1-2.4C22.2,33.9,23.7,34.4,23.7,34.4L23.7,34.4z"/>
	<path id="path156_1_" class="st0" d="M11.4,12.4c0.8-1,2.8-3,3-3.3c-0.8,0.6-2.5,1.5-2.5,1.5c-1.4-1.3-3.7-3.2-5-3s-1.4,0-1.4,1.8
		c0,2.6,0.9,5.1,2.7,7.1c-1.7-3.5-2-4.6-2-7.1C8.6,10,11.4,12.4,11.4,12.4z"/>
	<path id="path156-2_1_" class="st0" d="M36.4,12.5c-0.8-1-2.8-3-3-3.3c0.8,0.6,2.5,1.5,2.5,1.5c1.4-1.3,3.7-3.2,5-3s1.4,0,1.4,1.8
		c0,2.6-0.9,5.1-2.7,7.1c1.7-3.5,2-4.5,2-7.1C39.2,10.1,36.4,12.5,36.4,12.5z"/>
	<path id="path207_1_" class="st2" d="M31.3,10.2c-2,0.1-4.1,0-6.1-0.1c-1.6,0-3.2-0.1-4.9-0.1c-1.2,0.1-1.4,0.2-2.6,1.6
		c-0.1,0.1,0.4,0.2,0.5,0.2c0.5,0.1,2.1,0.4,2.5,0.5c1.7,0.3,3.4,0.6,5.1,1.1c1,0.2,2,0.5,2.9,0.8c0.5,0.7,0.6,0.9,1.8-1.1
		c0.2-0.3-0.7,0.1-1,0.2c-0.4,0.1-0.9,0.1-1.3,0.1c-1.1,0.1-2.1,0.1-3.2,0.1c-2.3,0.1-4.7,0-7,0.1c-0.8,0-1.5,0-1.7,1.7
		c-0.1,0.4,0.9,0.2,1.3,0.3c1.9,0.3,3.8,0.6,5.8,0.8c1.7,0.2,3.5,0.5,5.2,0.7c0.3,0.1,0.7,0.1,1,0.2c0.1,0,0.2,0.2,0.3,0.1
		c0.6-0.4,1.1-0.9,1.6-1.4c-0.3,0-0.7,0.1-1,0.1c-2.5,0.2-5,0.2-7.5,0.2c-1.5,0-3,0-4.5,0.1s-2.5,0-3.7,1.5
		c-0.2,0.2,0.6,0.2,0.8,0.4c3,0.7,6,1.7,8.9,2.6c0.2,0.1,0.4,0.2,0.7,0.3c0.1,0,0.2,0.2,0.1,0.2c-0.1,0.1-0.5,0.1-0.4,0
		c0.5-0.4,1.1-0.6,1.5-1.1c0.2-0.2-0.5,0.1-0.8,0.2c-0.3,0-0.5,0.1-0.8,0.1c-0.6,0.1-1.2,0.1-1.8,0.1c-0.2,0-0.4,0-0.5,0.1
		c-0.7,0.6-1.3,1.2-1.9,1.7c0.7,0.5,1.4,1,2.1,1.5c0.1,0.1,1,0.7,1.2,0.9c0.1,0.1,0.1,0.2,0.2,0.3c-1,0.5,0.8-0.4,1.5-1
		c0.2-0.2-0.5,0.1-0.7,0.2c-0.7,0.2-1.3,0.3-2,0.4c-1.4,0.2-2.7,0.8-3.7,1.8c-0.1,0.1,0.3,0.3,0.4,0.4c2,0.9,4,1.7,6,2.6
		c-0.7-0.2,0.8,0.2,0.6,0.4c-0.1,0-0.3,0-0.2-0.1c0.6-0.4,1.3-0.7,1.8-1.2c0.2-0.2-0.4,0.1-0.7,0.1c-0.3,0-0.5,0.1-0.8,0.1
		s-0.5,0-0.8,0.1l-2,1.5L22,31.2c0.6,0,1.2,0,1.8,0c0.3,0,0.8-0.3,1.1-0.4c0,0,0.8-0.4,1-0.4c0.9-0.4,1.8-0.8,2.7-1.3
		c0.1-0.1,0.1-0.2,0-0.3c-0.1-0.3-0.7-0.1-0.7-0.4c-2-0.7-4-1.5-5.9-2.5c-0.9-0.5-0.1-0.1-2.3,1.1c-0.1,0,0.1-0.1,0.2-0.1
		c0.4-0.2,0.9-0.2,1.3-0.4c0.7-0.2,1.3-0.3,2-0.4c0.2,0,0.5-0.1,0.7-0.1c0.9-0.4,1.8-0.9,2.6-1.5c0.1-0.1,0.1-0.3,0.1-0.4
		c-0.1-0.1-0.2-0.2-0.3-0.4c-0.1-0.1-1.2-0.9-1.3-0.9c-0.7-0.5-1.3-1-1.9-1.5c-0.8,0.4-1.5,0.8-2.3,1.2c-0.1,0,0.1-0.1,0.2-0.1
		s0.2-0.1,0.4-0.1c0.6-0.1,1.3-0.1,1.9-0.2c2-0.3,2-0.2,4.4-1.6c0.1-0.1,0.2-0.2,0.2-0.4c0-0.3-1-0.5-1-0.6c-3-0.8-5.9-1.7-8.9-2.7
		c-1.3,0-0.4-0.1-2.7,1.3c-0.1,0,0.1-0.1,0.2-0.1c0.4-0.1,0.9-0.1,1.3-0.1c1.5-0.1,3.1-0.1,4.6-0.2c2.8-0.1,5.6-0.1,8.4-0.2
		c0.9-0.5,1.7-1,2.5-1.6c0.1-0.1-0.3-0.1-0.4-0.1c-0.4-0.1-0.7-0.1-1.1-0.1c-1.2-0.1-2-0.2-3.3-0.4c-0.7-0.1-1.3-0.2-2-0.3
		c-1.5-0.2-2.5-0.3-4-0.6c-0.5-0.1-1.1-0.2-1.6-0.3c-0.4-0.1-0.8-0.4-1.1-0.3c-1.2,0.3-3.5,1.9-2.4,1.2c2.4-0.2,4.8-0.2,7.2-0.2
		c1.4,0,1.8,0,3.1-0.1c0.4,0,0.9,0,1.3-0.1c0.3,0,0.6,0,0.9-0.1c0.9-0.4,1.8-1,2.5-1.6c0.1-0.1-0.2-0.1-0.3-0.2
		c-1-0.3-2.1-0.5-3.1-0.7c-1.7-0.4-3.4-0.7-5.1-1.1c-0.8-0.2-1.5-0.3-2.3-0.6c-0.1,0-0.3-0.2-0.4-0.1c-0.8,0.4-1.5,0.8-2.2,1.3
		c-0.2,0.1,1-0.4,0.6-0.1c1.7-0.1,3.3-0.1,5,0c2,0.1,3.9,0.2,5.9,0.2L31.3,10.2L31.3,10.2z"/>
	<g class="st3">
		<path class="st0" d="M55.9,8.4h0.6l6.3,13.3h-3.4l-0.6-1.3h-5.1L53,21.7h-3.4L55.9,8.4z M57.7,18.1l-1.5-3.3h0l-1.5,3.3H57.7z"/>
		<path class="st0" d="M64.1,8.8h3.1V19h5.6v2.7h-8.7V8.8z"/>
		<path class="st0" d="M74.4,8.8h3.1V19h5.6v2.7h-8.7V8.8z"/>
		<path class="st0" d="M86,15.4l-4.6-6.6H85l2.6,3.9l2.6-3.9h3.5l-4.6,6.6v6.2H86V15.4z"/>
	</g>
	<path id="path229_1_" class="st2" d="M45.6,15.7c-1.9,2.1-3.6,4.4-5,6.8c-0.4,0.7-0.7,1.3-1,2c-0.6,1.2-1.1,2.4-1.4,3.7
		c-0.2,0.8-0.5,2,0,2.9c0.6,1.1,1.5,1,2.6,1.2c0.7-0.1,1.3-0.1,2-0.2c3.1-0.6,6.1-2,9-3.2c1.6-0.6,3.1-1.1,4.7-1.7l2.6-2l0,0
		c-1.6,0.5-3.2,1.1-4.8,1.7c-0.5,0.2-1,0.4-1.5,0.6c-2.4,1-4.9,2.2-7.5,2.7c-0.6,0.1-1.2,0.2-1.9,0.2c-0.9-0.1-1.8,0-2.3-0.9
		c-0.4-0.7-0.2-1.9,0-2.6c0.3-1.3,0.8-2.5,1.4-3.6c0.4-0.7,0.7-1.3,1.1-2c1.5-2.6,3.3-4.9,5.4-7L45.6,15.7L45.6,15.7z"/>
	<path id="path231_1_" class="st2" d="M48.5,22.2c0.2,4.5,0.4,9,0.5,13.5l2.8-1.4l0,0c-0.4-4.6-0.4-9.1-0.1-13.7L48.5,22.2
		L48.5,22.2z"/>
	<g class="st3">
		<path class="st0" d="M58.9,33l-4.6-6.6h3.6l2.6,3.9l2.6-3.9h3.5L62.1,33v6.2h-3.1V33z"/>
		<path class="st0" d="M73.9,25.9c4,0,6.9,3,6.9,6.9s-2.9,6.9-6.9,6.9c-4.1,0-6.9-3-6.9-6.9S69.8,25.9,73.9,25.9z M73.9,36.6
			c2.3,0,3.7-1.7,3.7-3.9c0-2.2-1.5-3.9-3.7-3.9c-2.3,0-3.7,1.7-3.7,3.9C70.2,34.9,71.6,36.6,73.9,36.6z"/>
		<path class="st0" d="M83,26.3h3.1v8.1c0,1.7,0.8,2.3,1.9,2.3c1.2,0,1.9-0.6,1.9-2.3v-8.1h3.1v8.5c0,3-2.3,4.8-5.1,4.8
			c-2.9,0-5-1.8-5-4.8V26.3z"/>
	</g>
	<path id="path859-3-8_1_" class="st0" d="M12,16.7c0-0.7,0.9-1,1-0.7s0.3,1,0,0.8s-0.2-0.3-0.5-0.2c-0.3,0.1-0.3,0.1-0.3,0.1
		L12,16.7z"/>
	<path id="path859-3-8-4_1_" class="st4" d="M11.5,18.1c-0.1,0.7-1.1,0.9-1.1,0.6s-0.1-1,0.1-0.8c0.3,0.2,0.1,0.3,0.4,0.2
		c0.3-0.1,0.3,0,0.3,0L11.5,18.1z"/>
	<path id="path923_1_" class="st0" d="M15.4,14.7c0.1-0.4-0.4-0.8-0.7-0.4c-0.3,0.4-0.1,1,0.1,1c0.2,0,0.4-0.4,0.4-0.4l0.1-0.1
		L15.4,14.7z"/>
	<path id="path923-0_1_" class="st0" d="M14.5,13c0.3,0.2,0.9,0,0.7-0.4s-0.9-0.5-0.9-0.3s0.2,0.5,0.2,0.5V13L14.5,13z"/>
	<path id="path859-3-8-4-9_1_" class="st0" d="M16.9,10.1c-0.1,0.7-1.1,0.9-1.1,0.6c0-0.3-0.1-1,0.1-0.8c0.3,0.2,0.1,0.3,0.4,0.2
		s0.3,0,0.3,0H16.9z"/>
	<path id="path923-04_1_" class="st0" d="M13.8,18.8c0.4,0,0.7-0.6,0.3-0.8c-0.4-0.2-1,0.1-0.9,0.3c0.1,0.2,0.5,0.2,0.5,0.2l0.1,0.1
		L13.8,18.8z"/>
	<path id="path985_1_" class="st0" d="M13,13.7c0,0.8-0.6,1-0.8,0.6c-0.1-0.4,0.1-0.7,0.3-0.7S12.8,13.6,13,13.7z"/>
	<path id="path859-3-8-5_1_" class="st0" d="M35.5,19.2c0-0.7,0.9-1,1-0.7s0.3,1,0,0.8S36.3,19,36,19.1c-0.3,0.1-0.3,0.1-0.3,0.1
		L35.5,19.2z"/>
	<path id="path859-3-8-4-6_1_" class="st0" d="M33.7,16.8c-0.1,0.7-1.1,0.9-1.1,0.6s-0.1-1,0.1-0.8c0.3,0.2,0.1,0.3,0.4,0.2
		c0.3-0.1,0.3,0,0.3,0L33.7,16.8z"/>
	<path id="path923-3_1_" class="st0" d="M32.6,14.2c0.1-0.4-0.4-0.8-0.7-0.4s-0.1,1,0.1,1c0.2,0,0.4-0.4,0.4-0.4l0.1-0.1L32.6,14.2z
		"/>
	<path id="path923-0-4_1_" class="st0" d="M34.5,15.6c0.3,0.2,0.9,0,0.7-0.4s-0.9-0.5-0.9-0.3s0.2,0.5,0.2,0.5V15.6L34.5,15.6z"/>
	<path id="path859-3-8-4-9-0_1_" class="st0" d="M35.1,12.6C35,13.3,34,13.5,34,13.2s-0.1-1,0.1-0.8c0.3,0.2,0.1,0.3,0.4,0.2
		c0.3-0.1,0.3,0,0.3,0L35.1,12.6z"/>
	<path id="path923-04-6_1_" class="st0" d="M32.7,11.4c0.4,0,0.7-0.6,0.3-0.8s-1,0.1-0.9,0.3s0.5,0.2,0.5,0.2l0.1,0.1L32.7,11.4z"/>
	<path id="path985-0_1_" class="st0" d="M37.2,14.2c0,0.8-0.6,1-0.8,0.6s0.1-0.7,0.3-0.7S37,14.2,37.2,14.2z"/>
	<path id="path859-3-8-7_1_" class="st0" d="M12.8,27.5c-0.4-0.6,0.2-1.4,0.4-1.2c0.2,0.2,0.8,0.6,0.4,0.7c-0.4,0-0.3-0.1-0.5,0.1
		c-0.2,0.3-0.2,0.2-0.2,0.2L12.8,27.5z"/>
	<path id="path859-3-8-4-8_1_" class="st0" d="M13.2,29c0.3,0.6-0.4,1.3-0.6,1.1c-0.2-0.2-0.7-0.7-0.3-0.7s0.3,0.2,0.5-0.1
		c0.2-0.2,0.2-0.2,0.2-0.2L13.2,29z"/>
	<path id="path923-04-0_1_" class="st0" d="M15.4,28.2c0.3-0.3,0.2-0.9-0.2-0.8c-0.5,0.1-0.7,0.7-0.6,0.8c0.2,0.1,0.5-0.1,0.5-0.1
		h0.1L15.4,28.2z"/>
	<path id="path985-4_1_" class="st0" d="M11.8,24.6c0.4,0.7,0.1,1.2-0.3,0.9c-0.3-0.3-0.3-0.7-0.2-0.8
		C11.5,24.6,11.7,24.6,11.8,24.6z"/>
	<path id="path859-3-8-7-0_1_" class="st0" d="M34.6,27c-0.4-0.6,0.2-1.4,0.4-1.2c0.2,0.2,0.8,0.6,0.4,0.7c-0.4,0-0.3-0.1-0.5,0.1
		c-0.2,0.3-0.2,0.2-0.2,0.2L34.6,27z"/>
	<path id="path859-3-8-4-8-0_1_" class="st0" d="M35.2,28.7c0.3,0.6-0.4,1.3-0.6,1.1c-0.2-0.2-0.7-0.7-0.3-0.7s0.3,0.2,0.5-0.1
		c0.2-0.2,0.2-0.2,0.2-0.2L35.2,28.7z"/>
	<path id="path923-04-0-9_1_" class="st0" d="M33,28.1c0.3-0.3,0.2-0.9-0.2-0.8c-0.5,0.1-0.7,0.7-0.6,0.8c0.2,0.1,0.5-0.1,0.5-0.1
		h0.1L33,28.1z"/>
	<path id="path985-4-7_1_" class="st0" d="M36.7,24c0.4,0.7,0.1,1.2-0.3,0.9c-0.3-0.3-0.3-0.7-0.2-0.8C36.4,24.1,36.5,24.1,36.7,24z
		"/>
	<ellipse id="path1095_1_" class="st0" cx="17.3" cy="35" rx="0.2" ry="0.2"/>
	<ellipse id="path1095-3_1_" class="st0" cx="16.7" cy="34.7" rx="0.2" ry="0.2"/>
	<ellipse id="path1095-3-6_1_" class="st0" cx="18.8" cy="36.7" rx="0.2" ry="0.2"/>
	<ellipse id="path1095-3-6-9_1_" class="st0" cx="16.7" cy="36.7" rx="0.2" ry="0.2"/>
	<ellipse id="path1095-3-6-8_1_" class="st0" cx="17.8" cy="35.7" rx="0.2" ry="0.2"/>
	<ellipse id="path1095-3-6-6_1_" class="st0" cx="16.3" cy="35.5" rx="0.2" ry="0.2"/>
	<ellipse id="path1095-3-6-95_1_" class="st0" cx="17.6" cy="36.5" rx="0.2" ry="0.2"/>
	<ellipse id="path1095-3-6-951_1_" class="st0" cx="18" cy="37.7" rx="0.2" ry="0.2"/>
	<ellipse id="path1095-8_1_" class="st0" cx="30" cy="35.1" rx="0.2" ry="0.2"/>
	<ellipse id="path1095-3-3_1_" class="st0" cx="30.8" cy="35.2" rx="0.2" ry="0.2"/>
	<ellipse id="path1095-3-6-7_1_" class="st0" cx="28.7" cy="37.1" rx="0.2" ry="0.2"/>
	<ellipse id="path1095-3-6-9-1_1_" class="st0" cx="30.8" cy="37.1" rx="0.2" ry="0.2"/>
	<ellipse id="path1095-3-6-8-2_1_" class="st0" cx="29.5" cy="35.6" rx="0.2" ry="0.2"/>
	<ellipse id="path1095-3-6-6-6_1_" class="st0" cx="30.2" cy="36.3" rx="0.2" ry="0.2"/>
	<ellipse id="path1095-3-6-95-1_1_" class="st0" cx="29.6" cy="36.9" rx="0.2" ry="0.2"/>
	<ellipse id="path1095-3-6-951-7_1_" class="st0" cx="29.5" cy="38.1" rx="0.2" ry="0.2"/>
</g>
</svg>
