<?xml version="1.0" encoding="utf-8"?>
<!-- Generator: Adobe Illustrator 25.2.2, SVG Export Plug-In . SVG Version: 6.00 Build 0)  -->
<svg version="1.1" id="Calque_1" xmlns="http://www.w3.org/2000/svg" xmlns:xlink="http://www.w3.org/1999/xlink" x="0px" y="0px"
	 viewBox="0 0 140 80" style="enable-background:new 0 0 140 80;" xml:space="preserve">
<style type="text/css">
	.st0{clip-path:url(#SVGID_2_);}
	.st1{stroke:#000000;stroke-width:0.232;stroke-miterlimit:11.339;}
	.st2{opacity:0.65;fill:#FFFFFF;enable-background:new    ;}
	.st3{fill:#FF6600;stroke:#000000;stroke-width:0.232;stroke-miterlimit:11.339;}
	.st4{fill:#FF6600;stroke:#000000;stroke-width:0.244;stroke-miterlimit:11.339;}
	.st5{fill:#FF6600;}
	.st6{enable-background:new    ;}
	.st7{stroke:#000000;stroke-width:9.700000e-02;stroke-miterlimit:11.339;}
	.st8{stroke:#000000;stroke-width:0.142;stroke-miterlimit:11.339;}
	.st9{stroke:#000000;stroke-width:0.12;stroke-miterlimit:11.339;}
</style>
<g>
	<g>
		<defs>
			<rect id="SVGID_1_" x="-10.6" y="-5.2" width="147" height="82"/>
		</defs>
		<clipPath id="SVGID_2_">
			<use xlink:href="#SVGID_1_"  style="overflow:visible;"/>
		</clipPath>
		<g id="logo" transform="translate(-0.013 -0.197)" class="st0">
			<g id="logoallysansfond" transform="translate(0.013 1.562)">
				<path id="path118" class="st1" d="M23.5,41.2c-0.3-3.2-1.1-4.7-1.9-5.8c-1.4-0.8-3.1-1-4.7-0.6c-1.2,0.3-7.2,2.3-5.8,2.1
					s3.8-0.4,3.7-0.4c0.5,1.5,1.2,3,2.2,4.2c1.3,1.2,3,1.7,4.7,1.5c0.6,1.2,1.6,3.4,0.9,4.8c-0.7,1.4-4.9,4.5-5.1,7.2
					s-0.1,5.9,2.7,8.4c-1.7-3-2.4-5.4-2.1-7.2c0.4-1.8,2-3.4,4.2-5.3c2-1.8,2.4-3.3,2.1-5.4C24.2,43.5,23.9,42.3,23.5,41.2z"/>
				<ellipse id="path122" class="st2" cx="17.4" cy="36.3" rx="0.9" ry="0.9"/>
				<path id="path124" class="st3" d="M18.4,40.1c-1-0.8-1.9-1.8-2.7-2.8c0.5,1.5,1.5,2.8,2.8,3.6c1.1,0.6,3.2,0.2,3.5,0.2
					C20.9,41,19.6,40.7,18.4,40.1L18.4,40.1z"/>
				<path id="path118-7" class="st1" d="M40.5,40.8c0.3-3.2,1.1-4.8,1.9-5.9c1.4-0.8,3-1.1,4.6-0.6c1.2,0.3,7.1,2.4,5.7,2.1
					S49,36,49.1,36c-0.5,1.5-1.2,3-2.2,4.3c-0.9,0.8-2.9,2-4.6,1.5c-0.6,1.3-1.6,3.5-0.9,4.8c0.7,1.4,4.8,4.5,5,7.3
					c0.2,2.7,0.1,6-2.7,8.5c1.7-3.1,2.4-5.5,2-7.3s-1.9-3.5-4.1-5.4c-2-1.8-2.4-3.4-2-5.4C39.8,43.2,40.1,42,40.5,40.8L40.5,40.8z"
					/>
				<ellipse id="path122-4" class="st2" cx="46.5" cy="35.9" rx="1" ry="1"/>
				<path id="path124-9" class="st4" d="M45.5,39.8c1.1-0.8,2.1-1.8,2.9-2.9c-0.5,1.6-1.6,2.9-3.1,3.7c-1.2,0.6-3.5,0.2-3.9,0.2
					C44.3,40.4,45.7,39.7,45.5,39.8z"/>
				<path id="path154" class="st1" d="M31.8,55.8c2.6-0.3,5.7-2.4,6.6-0.8c0.9,1.6-1.6,3.1-2.6,4.2s-2.9,2.3-3.3,3.5
					c0.8,1.4,3.6,1.5,5.6,1.3c-3.2,0.6-4.5,0.6-6.2,0.2c-2.2,0.2-4.4,0.1-6.6-0.3c1.9,0.1,6.8-0.5,5.9-1.5c-1.4-1.6-2.8-3-4.4-4.4
					c-2-1.8-2.4-4.2,0.1-3.5C29.5,55.1,31.8,55.8,31.8,55.8L31.8,55.8z"/>
				<path id="path156" class="st1" d="M14,24.1c1.1-1.4,4-4.3,4.3-4.8c-1.2,0.8-3.6,2.1-3.6,2.1c-2-1.9-5.4-4.6-7.3-4.3
					c-1.8,0.2-2.1,0-2,2.6c0,3.8,1.4,7.4,3.9,10.3c-2.4-5-2.9-6.6-2.9-10.3C9.9,20.6,14,24.1,14,24.1z"/>
				<path id="path156-2" class="st1" d="M50.1,24.2c-1.2-1.4-4-4.3-4.3-4.8c1.2,0.8,3.6,2.1,3.6,2.1c2-1.9,5.4-4.6,7.2-4.3
					s2.1,0,2,2.6c0,3.8-1.4,7.4-3.9,10.3c2.5-5,3-6.6,3-10.3C54.2,20.7,50.1,24.2,50.1,24.2z"/>
				<path id="path207" class="st5" d="M42.8,20.9C39.9,21,36.9,21,34,20.8c-2.3-0.1-4.7-0.3-7.1-0.2c-1.7,0.1-2.1,0.3-3.8,2.3
					c-0.2,0.2,0.5,0.3,0.8,0.3c0.7,0.2,3.1,0.6,3.6,0.7c2.5,0.4,5,0.9,7.4,1.5c1.4,0.3,2.9,0.7,4.3,1.2c0.7,1,0.8,1.3,2.6-1.6
					c0.3-0.4-1,0.2-1.4,0.3c-0.6,0.1-1.3,0.1-1.9,0.2c-1.6,0.1-3,0.1-4.6,0.2c-3.4,0.1-6.8,0-10.2,0.1c-1.2,0-2.1,0-2.4,2.5
					c-0.1,0.6,1.2,0.3,1.9,0.4c2.8,0.5,5.6,0.8,8.3,1.2c2.5,0.4,5,0.7,7.5,1.1c0.5,0.1,1,0.1,1.5,0.3c0.1,0,0.3,0.3,0.4,0.2
					c0.8-0.6,1.6-1.3,2.4-2c-0.5,0.1-1,0.1-1.5,0.2C38.2,30,34.6,30,31,30c-2.2,0.1-4.3,0-6.5,0.2C22.3,30,20.7,29.9,19,32
					c-0.3,0.3,0.8,0.4,1.2,0.5c4.4,1,8.7,2.4,12.9,3.8c0.3,0.1,0.6,0.3,1,0.4c0.1,0.1,0.3,0.2,0.2,0.3s-0.7,0.2-0.5,0.1
					c0.7-0.6,1.6-0.8,2.2-1.5c0.3-0.3-0.8,0.2-1.2,0.2c-0.4,0.1-0.8,0.1-1.1,0.2c-0.9,0.1-1.7,0.2-2.6,0.2c-0.3,0-0.5,0-0.8,0.1
					c-1,0.8-1.9,1.7-2.8,2.5c1,0.8,2,1.5,3,2.2c0.2,0.1,1.5,1.1,1.7,1.3c0.1,0.1,0.2,0.3,0.3,0.4c-1.5,0.7,1.1-0.5,2.1-1.4
					c0.3-0.2-0.7,0.2-1,0.3c-1,0.3-1.9,0.4-2.9,0.6c-2,0.3-3.9,1.2-5.3,2.7c-0.2,0.2,0.4,0.4,0.6,0.6c2.9,1.3,5.8,2.4,8.7,3.7
					c-1.1-0.3,1.2,0.4,0.9,0.5c-0.1,0.1-0.4,0-0.3-0.1c0.8-0.6,1.8-1,2.6-1.7c0.2-0.2-0.6,0.1-1,0.2c-0.4,0.1-0.8,0.1-1.2,0.1
					s-0.8,0.1-1.2,0.1l-2.9,2.1l-2.4,0.9c0.9,0,1.7,0,2.6-0.1c0.4,0,1.2-0.5,1.5-0.5c0,0,1.2-0.5,1.5-0.6c1.3-0.6,2.6-1.2,3.8-2
					c0.1-0.1,0.1-0.3,0-0.4c-0.2-0.4-1-0.2-1.1-0.5c-2.9-1-5.8-2.2-8.5-3.7c-1.4-0.7-0.2-0.2-3.4,1.7c0.1,0,0.3-0.2,0.4-0.2
					c0.6-0.3,1.2-0.3,1.8-0.5c1-0.2,2-0.4,2.9-0.6c0.3,0,0.7-0.1,1-0.2c1.3-0.6,2.6-1.4,3.8-2.2c0.2-0.1,0.1-0.4,0.1-0.6
					c-0.1-0.2-0.2-0.4-0.4-0.5c-0.1-0.1-1.8-1.2-1.8-1.3c-1-0.7-1.9-1.4-2.8-2.2c-1.1,0.6-2.2,1.1-3.4,1.7c-0.1,0,0.1-0.2,0.2-0.2
					c0.2,0,0.4-0.1,0.5-0.1c0.9-0.1,1.8-0.1,2.7-0.2c2.9-0.4,2.9-0.3,6.3-2.4c0.2-0.1,0.3-0.4,0.3-0.6c-0.1-0.4-1.5-0.8-1.5-0.8
					c-4.3-1.2-8.6-2.5-12.8-3.9c-1.9,0-0.6-0.1-3.9,1.8c-0.1,0.1,0.2-0.1,0.3-0.1c0.6-0.1,1.2-0.1,1.9-0.2c2.2-0.2,4.4-0.2,6.7-0.3
					c4-0.1,8.1-0.1,12.1-0.2c1.2-0.7,2.5-1.5,3.6-2.3C44,29,43.4,29,43.2,29c-0.5-0.1-1.1-0.1-1.6-0.2c-1.8-0.2-2.9-0.3-4.7-0.6
					c-1-0.1-1.9-0.3-2.9-0.4c-2.1-0.3-3.6-0.5-5.8-0.8c-0.8-0.1-1.6-0.3-2.4-0.5c-0.6-0.1-1.1-0.6-1.7-0.5c-1.8,0.5-5.1,2.8-3.5,1.7
					c3.5-0.3,6.9-0.2,10.4-0.3c2,0,2.6,0,4.5-0.1c0.6,0,1.2-0.1,1.9-0.1c0.5,0.1,0.9,0,1.4-0.1c1.3-0.6,2.5-1.4,3.7-2.3
					c0.1-0.1-0.3-0.2-0.4-0.3c-1.5-0.4-3-0.7-4.5-1.1c-2.5-0.5-4.9-1.1-7.4-1.6c-1.1-0.3-2.2-0.5-3.3-0.8c-0.2-0.1-0.4-0.3-0.6-0.2
					c-1.1,0.6-2.2,1.2-3.2,1.9c-0.2,0.2,1.4-0.6,0.8-0.2c2.4-0.1,4.8-0.1,7.2,0.1c2.9,0.1,5.7,0.3,8.6,0.3L42.8,20.9L42.8,20.9z"/>
				<g class="st6">
					<path d="M78.4,18.2h0.8l9.1,19.2h-4.9l-0.9-1.9h-7.3l-0.9,1.9h-4.9L78.4,18.2z M80.9,32.3l-2.1-4.7h-0.1l-2.2,4.7H80.9z"/>
					<path d="M90.3,18.8h4.6v14.7h8.1v3.9H90.3V18.8z"/>
					<path d="M105.1,18.8h4.6v14.7h8.1v3.9h-12.7V18.8z"/>
					<path d="M121.9,28.5l-6.6-9.6h5.1l3.7,5.6l3.8-5.6h5.1l-6.6,9.6v9h-4.5V28.5z"/>
				</g>
				<path id="path229" class="st5" d="M63.5,28.9c-2.8,3-5.2,6.3-7.2,9.9c-0.5,1-1,1.9-1.5,2.9c-0.9,1.7-1.6,3.5-2.1,5.4
					c-0.3,1.2-0.7,2.9,0,4.1c0.9,1.6,2.2,1.4,3.7,1.7c1-0.1,1.9-0.1,2.9-0.3c4.4-0.8,8.8-2.9,13-4.6c2.3-0.8,4.5-1.7,6.8-2.4
					l3.7-2.9l0,0c-2.4,0.8-4.7,1.6-7,2.5c-0.7,0.3-1.5,0.6-2.2,0.8c-3.5,1.4-7,3.1-10.8,3.9c-0.9,0.2-1.8,0.2-2.7,0.4
					c-1.2-0.2-2.6,0-3.4-1.3c-0.6-1.1-0.3-2.8-0.1-3.8c0.5-1.8,1.1-3.6,2-5.2c0.5-1,1-1.9,1.5-2.9c2.1-3.7,4.8-7.1,7.8-10.1
					L63.5,28.9L63.5,28.9z"/>
				<path id="path231" class="st5" d="M67.6,38.4c0.3,6.5,0.5,13,0.7,19.6l4-2.1l0,0c-0.5-6.6-0.6-13.2-0.2-19.8L67.6,38.4
					L67.6,38.4z"/>
				<g class="st6">
					<path d="M82.7,53.8l-6.6-9.6h5.1l3.7,5.6l3.8-5.6h5.1l-6.6,9.6v9h-4.5V53.8z"/>
					<path d="M104.4,43.6c5.9,0,10,4.4,10,9.9s-4.2,9.9-10,9.9c-5.9,0-10-4.4-10-9.9S98.5,43.6,104.4,43.6z M104.4,59.1
						c3.3,0,5.4-2.5,5.4-5.6s-2.1-5.6-5.4-5.6c-3.3,0-5.4,2.5-5.4,5.6S101.1,59.1,104.4,59.1z"/>
					<path d="M117.6,44.2h4.5v11.7c0,2.5,1.2,3.3,2.8,3.3c1.7,0,2.8-0.9,2.8-3.3V44.2h4.6v12.3c0,4.4-3.3,6.9-7.4,6.9
						c-4.2,0-7.3-2.6-7.3-6.9V44.2z"/>
				</g>
				<path id="path859-3-8" class="st7" d="M14.9,30.2c0-1.1,1.3-1.5,1.4-1.1s0.4,1.4,0,1.1s-0.3-0.4-0.7-0.3S15.2,30,15.2,30
					L14.9,30.2z"/>
				<path id="path859-3-8-4" class="st7" d="M14.1,32.3c-0.2,1-1.5,1.3-1.6,0.9s-0.2-1.5,0.2-1.1c0.4,0.3,0.2,0.4,0.6,0.4
					s0.4,0,0.4,0L14.1,32.3z"/>
				<path id="path923" class="st8" d="M19.8,27.3c0.1-0.6-0.6-1.2-1-0.6s-0.2,1.5,0.1,1.4c0.3-0.1,0.5-0.5,0.5-0.5l0.2-0.1
					L19.8,27.3z"/>
				<path id="path923-0" class="st8" d="M18.4,25c0.5,0.3,1.3,0,1-0.6s-1.3-0.8-1.3-0.5s0.3,0.7,0.3,0.7v0.2V25z"/>
				<path id="path859-3-8-4-9" class="st7" d="M21.9,20.7c-0.2,1-1.5,1.3-1.6,0.9s-0.2-1.5,0.2-1.1c0.4,0.3,0.2,0.4,0.6,0.4
					s0.4,0,0.4,0L21.9,20.7z"/>
				<path id="path923-04" class="st8" d="M17.4,33.3c0.6,0,1-0.9,0.4-1.1c-0.6-0.3-1.5,0.2-1.3,0.5c0.1,0.3,0.7,0.4,0.7,0.4
					L17.4,33.3L17.4,33.3z"/>
				<path id="path985" class="st9" d="M16.2,25.9c0,1.2-0.9,1.4-1.1,0.8s0.2-1.1,0.4-1C15.8,25.7,16,25.8,16.2,25.9z"/>
				<path id="path859-3-8-5" class="st7" d="M48.8,34c0-1.1,1.3-1.5,1.4-1.1c0.1,0.4,0.4,1.4,0,1.2c-0.4-0.3-0.3-0.4-0.7-0.3
					S49,33.9,49,33.9L48.8,34z"/>
				<path id="path859-3-8-4-6" class="st7" d="M46.2,30.5c-0.2,1-1.5,1.3-1.6,0.9s-0.2-1.5,0.2-1.1c0.4,0.3,0.2,0.4,0.6,0.4
					s0.4,0,0.4,0L46.2,30.5z"/>
				<path id="path923-3" class="st8" d="M44.6,26.7c0.1-0.6-0.6-1.2-1-0.6s-0.2,1.5,0.1,1.4s0.5-0.5,0.5-0.5l0.2-0.1L44.6,26.7z"/>
				<path id="path923-0-4" class="st8" d="M47.6,28.7c0.5,0.3,1.3,0,1-0.6s-1.3-0.8-1.3-0.5s0.3,0.7,0.3,0.7v0.2V28.7z"/>
				<path id="path859-3-8-4-9-0" class="st7" d="M48.2,24.4c-0.2,1-1.5,1.3-1.6,0.9s-0.2-1.5,0.2-1.1c0.4,0.3,0.2,0.4,0.6,0.4
					s0.4,0,0.4,0L48.2,24.4z"/>
				<path id="path923-04-6" class="st8" d="M44.8,22.7c0.6,0,1-0.9,0.4-1.1c-0.6-0.3-1.5,0.2-1.3,0.5c0.1,0.3,0.7,0.4,0.7,0.4
					L44.8,22.7L44.8,22.7z"/>
				<path id="path985-0" class="st9" d="M51.3,26.7c0,1.2-0.9,1.4-1.1,0.8s0.2-1.1,0.4-1C50.9,26.6,51.1,26.6,51.3,26.7z"/>
				<path id="path859-3-8-7" class="st7" d="M16,46c-0.6-0.9,0.2-2,0.5-1.7s1.1,0.9,0.6,1c-0.5,0-0.5-0.2-0.7,0.2
					c-0.3,0.4-0.3,0.3-0.3,0.3L16,46z"/>
				<path id="path859-3-8-4-8" class="st7" d="M16.6,48.1c0.5,0.9-0.5,1.9-0.8,1.6c-0.3-0.3-1-1.1-0.5-1s0.4,0.3,0.7-0.1
					c0.3-0.3,0.4-0.3,0.4-0.3L16.6,48.1z"/>
				<path id="path923-04-0" class="st8" d="M19.8,47c0.4-0.4,0.4-1.3-0.4-1.1c-0.7,0.2-1.1,1-0.8,1.2s0.7-0.1,0.7-0.1h0.2L19.8,47z"
					/>
				<path id="path985-4" class="st9" d="M14.6,41.6c0.6,1,0.1,1.7-0.4,1.3s-0.5-1-0.2-1.1C14.1,41.8,14.4,41.7,14.6,41.6z"/>
				<path id="path859-3-8-7-0" class="st7" d="M47.5,45.2c-0.6-0.9,0.2-2,0.5-1.7s1.2,0.9,0.6,1c-0.5,0-0.5-0.2-0.7,0.2
					C47.8,45,47.7,45,47.7,45L47.5,45.2z"/>
				<path id="path859-3-8-4-8-0" class="st7" d="M48.4,47.7c0.5,0.9-0.5,1.9-0.8,1.6s-1-1.1-0.5-1s0.4,0.3,0.7-0.1s0.4-0.3,0.4-0.3
					L48.4,47.7z"/>
				<path id="path923-04-0-9" class="st8" d="M45.2,46.8c0.4-0.4,0.4-1.3-0.4-1.1c-0.7,0.2-1.1,1-0.8,1.2s0.7-0.1,0.7-0.1h0.2
					L45.2,46.8z"/>
				<path id="path985-4-7" class="st9" d="M50.5,40.9c0.6,1,0.1,1.7-0.4,1.3s-0.5-1-0.2-1.1C50.1,41,50.3,41,50.5,40.9z"/>
				<ellipse id="path1095" cx="22.5" cy="56.7" rx="0.3" ry="0.3"/>
				<ellipse id="path1095-3" cx="21.7" cy="56.3" rx="0.3" ry="0.3"/>
				<ellipse id="path1095-3-6" cx="24.6" cy="59.3" rx="0.3" ry="0.3"/>
				<ellipse id="path1095-3-6-9" cx="21.7" cy="59.3" rx="0.3" ry="0.3"/>
				<ellipse id="path1095-3-6-8" cx="23.2" cy="57.8" rx="0.3" ry="0.3"/>
				<ellipse id="path1095-3-6-6" cx="21.1" cy="57.5" rx="0.3" ry="0.3"/>
				<ellipse id="path1095-3-6-95" cx="22.9" cy="59" rx="0.3" ry="0.3"/>
				<ellipse id="path1095-3-6-951" cx="23.5" cy="60.7" rx="0.3" ry="0.3"/>
				<ellipse id="path1095-8" cx="40.9" cy="56.9" rx="0.3" ry="0.3"/>
				<ellipse id="path1095-3-3" cx="42" cy="57.1" rx="0.3" ry="0.3"/>
				<ellipse id="path1095-3-6-7" cx="39" cy="59.7" rx="0.3" ry="0.3"/>
				<ellipse id="path1095-3-6-9-1" cx="42" cy="59.7" rx="0.3" ry="0.3"/>
				<ellipse id="path1095-3-6-8-2" cx="40.2" cy="57.7" rx="0.3" ry="0.3"/>
				<ellipse id="path1095-3-6-6-6" cx="41.2" cy="58.6" rx="0.3" ry="0.3"/>
				<ellipse id="path1095-3-6-95-1" cx="40.3" cy="59.5" rx="0.3" ry="0.3"/>
				<ellipse id="path1095-3-6-951-7" cx="40.2" cy="61.2" rx="0.3" ry="0.3"/>
			</g>
		</g>
	</g>
</g>
</svg>
